<?xml version="1.0" encoding="iso-8859-1"?>
<!-- Uploaded to: SVG Repo, www.svgrepo.com, Generator: SVG Repo Mixer Tools -->
<svg version="1.1" id="Layer_1" xmlns="http://www.w3.org/2000/svg" xmlns:xlink="http://www.w3.org/1999/xlink" 
	 viewBox="0 0 511.999 511.999" xml:space="preserve">
<circle style="fill:#CC809A;" cx="256.002" cy="29.542" r="21.485"/>
<polygon style="fill:#FFB969;" points="363.588,503.943 148.412,503.943 105.443,324.846 406.557,324.846 "/>
<path style="fill:#94D77F;" d="M255.999,324.846c-8.899,0-16.114-7.215-16.114-16.114V163.184c0-8.899,7.215-16.114,16.114-16.114
	c8.9,0,16.114,7.215,16.114,16.114v145.547C272.114,317.632,264.9,324.846,255.999,324.846z"/>
<path style="fill:#D988A5;" d="M214.946,21.446c34.539,0,62.538,27.999,62.538,62.538v57.716l0,0
	c-34.539,0-62.538-27.999-62.538-62.538L214.946,21.446L214.946,21.446z"/>
<path style="fill:#E690AF;" d="M297.054,21.446c-34.539,0-62.538,27.999-62.538,62.538v57.716l0,0
	c34.539,0,62.538-27.999,62.538-62.538V21.446L297.054,21.446z"/>
<path style="opacity:0.1;enable-background:new    ;" d="M256.001,195.411c5.493,0,10.876-0.475,16.114-1.376v-30.851
	c0-8.899-7.215-16.114-16.114-16.114s-16.114,7.215-16.114,16.114v30.851C245.125,194.937,250.508,195.411,256.001,195.411z"/>
<path style="fill:#F298B8;" d="M256.001,105.469c0-34.539-27.999-62.538-62.538-62.538l0,0v57.716
	c0,34.539,27.999,62.538,62.538,62.538l0,0l27.762-26.28v-31.435H256.001z"/>
<path style="fill:#FFA0C1;" d="M318.538,42.931c-34.539,0-62.538,27.999-62.538,62.538v57.716l0,0
	c34.539,0,62.538-27.999,62.538-62.538V42.931L318.538,42.931z"/>
<circle style="fill:#4DA3CC;" cx="146.494" cy="172.125" r="21.485"/>
<path style="fill:#52ADD9;" d="M105.443,164.025c34.539,0,62.538,27.999,62.538,62.538v57.716l0,0
	c-34.539,0-62.538-27.999-62.538-62.538L105.443,164.025L105.443,164.025z"/>
<path style="fill:#57B8E6;" d="M187.549,164.025c-34.539,0-62.538,27.999-62.538,62.538v57.716l0,0
	c34.539,0,62.538-27.999,62.538-62.538V164.025L187.549,164.025z"/>
<path style="fill:#5CC2F2;" d="M146.496,248.048c0-34.539-27.999-62.538-62.538-62.538l0,0v57.716
	c0,34.539,27.999,62.538,62.538,62.538l0,0l27.762-26.28v-31.435H146.496z"/>
<path style="fill:#61CCFF;" d="M209.034,185.51c-34.539,0-62.538,27.999-62.538,62.538v57.716l0,0
	c34.539,0,62.538-27.999,62.538-62.538V185.51L209.034,185.51z"/>
<circle style="fill:#8779B3;" cx="365.509" cy="172.125" r="21.485"/>
<path style="fill:#9181BF;" d="M324.451,164.025c34.539,0,62.538,27.999,62.538,62.538v57.716l0,0
	c-34.539,0-62.538-27.999-62.538-62.538V164.025L324.451,164.025z"/>
<path style="fill:#9B8ACC;" d="M406.557,164.025c-34.539,0-62.538,27.999-62.538,62.538v57.716l0,0
	c34.539,0,62.538-27.999,62.538-62.538V164.025L406.557,164.025z"/>
<path style="fill:#A593D9;" d="M365.504,248.048c0-34.539-27.999-62.538-62.538-62.538l0,0v57.716
	c0,34.539,27.999,62.538,62.538,62.538l0,0l27.762-26.28v-31.435H365.504z"/>
<path style="fill:#AF9CE6;" d="M428.042,185.51c-34.539,0-62.538,27.999-62.538,62.538v57.716l0,0
	c34.539,0,62.538-27.999,62.538-62.538V185.51L428.042,185.51z"/>
<polygon style="opacity:0.1;enable-background:new    ;" points="118.582,379.613 393.417,379.613 406.557,324.846 105.443,324.846 
	"/>
<rect x="78.999" y="295.018" style="fill:#FFA561;" width="354.004" height="52.365"/>
<path d="M433.005,286.964H420.89c5.435-6.879,9.596-14.743,12.164-23.194c1.293-4.257-1.11-8.757-5.367-10.051
	c-4.256-1.294-8.758,1.109-10.052,5.366c-3.376,11.114-10.312,20.929-19.647,27.879H373.56v-38.916
	c0-22.062,14.083-42.431,34.498-50.641c0.976-0.393,11.926-3.502,11.926-3.245v35.039c0,4.449,3.607,8.057,8.057,8.057
	s8.057-3.607,8.057-8.057V185.51c0-4.449-3.607-8.057-8.057-8.057c-4.592,0-9.078,0.455-13.428,1.297v-14.725
	c0-4.449-3.607-8.057-8.057-8.057c-5.211,0-10.333,0.594-15.296,1.707c-5.097-9.17-14.779-15.097-25.758-15.097
	c-10.969,0-20.646,5.919-25.746,15.078c-4.992-1.11-10.121-1.689-15.307-1.689c-4.449,0-8.057,3.607-8.057,8.057v14.725
	c-4.35-0.841-8.836-1.297-13.428-1.297c-4.449,0-8.057,3.607-8.057,8.057v57.716c0,16.091,5.467,31.438,15.18,43.739h-29.919
	V166.977c27.058-9.891,46.424-35.891,46.424-66.33V42.931c0-4.449-3.607-8.057-8.057-8.057c-4.592,0-9.078,0.455-13.428,1.298
	V21.446c0-4.449-3.607-8.057-8.057-8.057c-5.211,0-10.333,0.594-15.296,1.708C276.659,5.928,266.976,0,255.999,0
	c-10.97,0-20.647,5.92-25.747,15.079c-4.992-1.111-10.121-1.69-15.306-1.69c-4.449,0-8.057,3.607-8.057,8.057v14.725
	c-4.35-0.841-8.836-1.297-13.428-1.297c-4.449,0-8.057,3.607-8.057,8.057v33.364c0,4.449,3.607,8.057,8.057,8.057
	s8.057-3.607,8.057-8.057V51.582c4.018,0.598,7.891,1.641,11.575,3.069c0.199,0.077,0.396,0.158,0.594,0.237
	c20.079,8.032,33.939,28.19,34.249,49.802c0.003,0.26,0.005,0.52,0.005,0.78c0,0,0,44.755,0,48.746c0,0-1.016-0.105-1.016-0.101
	c-1.369-0.36-3.21-0.386-4.376-0.684c-21.223-5.421-37.747-23.357-40.583-45.914c-0.555-4.415-4.586-7.543-8.999-6.989
	c-4.415,0.555-7.543,4.585-6.989,8.999c3.37,26.801,21.647,48.566,45.851,57.423v120.015h-29.919
	c9.713-12.301,15.18-27.647,15.18-43.739V185.51c0-4.449-3.607-8.057-8.057-8.057c-4.592,0-9.078,0.455-13.428,1.297v-14.725
	c0-4.449-3.607-8.057-8.057-8.057c-5.211,0-10.333,0.594-15.296,1.707c-5.097-9.17-14.779-15.097-25.758-15.097
	c-10.969,0-20.646,5.919-25.746,15.078c-4.992-1.11-10.121-1.689-15.307-1.689c-4.449,0-8.057,3.607-8.057,8.057v14.725
	c-4.35-0.841-8.836-1.297-13.428-1.297c-4.449,0-8.057,3.607-8.057,8.057v57.716c0,16.091,5.467,31.438,15.18,43.739H78.995
	c-4.449,0-8.057,3.607-8.057,8.057v52.365c0,4.449,3.607,8.057,8.057,8.057h25.502l36.079,150.38
	c0.869,3.622,4.109,6.177,7.834,6.177h215.176c3.725,0,6.965-2.555,7.834-6.177l36.079-150.38h25.502
	c4.449,0,8.057-3.607,8.057-8.057V295.02C441.062,290.572,437.454,286.964,433.005,286.964z M398.5,172.688v11.228
	c-9.103,4.201-17.245,10.402-23.805,17.974c-3.545,4.093-6.629,8.591-9.17,13.422c-2.26-4.304-4.976-8.389-8.123-12.192
	c-0.403-0.487,2.982-5.428,3.361-6.013C369.159,184.138,383.103,175.017,398.5,172.688z M365.504,158.693
	c3.954,0,7.544,1.69,10.016,4.466c-3.492,1.711-6.834,3.709-10.009,5.986c-3.174-2.276-6.52-4.277-10.019-5.99
	C357.963,160.38,361.552,158.693,365.504,158.693z M332.508,172.682c3.544,0.531,7.014,1.416,10.367,2.622
	c3.491,1.259,6.843,2.864,10.007,4.804c0.118,0.072,0.237,0.143,0.354,0.216c-2.869,3.309-5.422,6.892-7.636,10.669
	c-0.107,0.184-0.226,0.361-0.331,0.546c-2.057-1.54-4.202-2.964-6.416-4.268c-0.591-0.348-6.372-3.047-6.357-3.358
	C332.669,180.201,332.508,176.41,332.508,172.682z M311.023,194.161c7.949,1.184,15.674,4.201,22.338,8.695
	c0.072,0.048,0.143,0.1,0.214,0.148c14.664,9.955,23.873,27.301,23.873,45.044v38.916h-24.429
	c-13.817-10.275-21.996-26.451-21.996-43.739L311.023,194.161z M310.482,51.583v49.065c0,25.315-17.363,46.642-40.801,52.729
	c-1.853,0.479-3.732,0.848-5.624,1.127c0,0,0-49.03,0-49.034c0-13.039,4.944-26.115,13.553-35.914
	C285.923,60.092,297.455,53.522,310.482,51.583z M247.943,170.781c0.192,0.023,0.386,0.029,0.578,0.049
	c2.483,0.264,4.981,0.41,7.479,0.41c2.584,0,5.181-0.153,7.748-0.434c0.103-0.011,0.206-0.015,0.308-0.026v116.183h-16.114V170.781z
	 M240.26,42.09c-1.497,2.035-2.886,4.148-4.165,6.326c-0.108,0.186-0.228,0.366-0.335,0.553c-3.955-2.965-8.269-5.55-12.757-7.628
	V30.102c3.548,0.532,7.022,1.419,10.38,2.63c3.485,1.258,6.842,2.86,9.997,4.803c0.116,0.071,0.233,0.141,0.348,0.213
	C242.515,39.148,241.358,40.598,240.26,42.09z M255.999,16.114c3.952,0,7.541,1.688,10.012,4.461
	c-3.492,1.712-6.835,3.713-10.01,5.991c-3.174-2.275-6.518-4.275-10.016-5.989C248.456,17.802,252.046,16.114,255.999,16.114z
	 M247.898,60.541c0.153-0.318,0.304-0.636,0.462-0.951c2.32-4.615,5.316-8.932,8.846-12.705c0.079-0.085,0.16-0.168,0.241-0.252
	c8.308-8.768,19.414-14.688,31.549-16.524v11.228c-9.074,4.187-17.274,10.407-23.802,17.971c-3.547,4.093-6.632,8.593-9.173,13.425
	C253.762,68.429,251.045,64.344,247.898,60.541z M200.977,194.161v49.064c0,17.288-8.179,33.464-21.996,43.739h-24.429v-38.916
	c0-22.065,14.065-42.433,34.487-50.641C190.018,197.014,200.977,193.905,200.977,194.161z M179.492,172.688v11.228
	c-9.103,4.2-17.259,10.388-23.805,17.974c-3.545,4.093-6.629,8.591-9.17,13.422c-2.26-4.304-4.976-8.389-8.123-12.192
	c-0.383-0.463,2.853-5.22,3.216-5.788c7.274-11.383,18.749-19.814,31.783-23.358C175.399,173.429,177.437,172.998,179.492,172.688z
	 M146.496,158.693c3.954,0,7.544,1.69,10.016,4.466c-3.492,1.711-6.834,3.709-10.009,5.986c-3.174-2.276-6.52-4.277-10.019-5.99
	C138.955,160.38,142.544,158.693,146.496,158.693z M113.5,172.682c7.204,1.077,14.167,3.617,20.374,7.426
	c0.118,0.072,0.237,0.143,0.355,0.216c-2.868,3.309-5.422,6.892-7.636,10.669c-0.107,0.184-0.226,0.361-0.331,0.546
	c-3.964-2.967-8.267-5.541-12.762-7.62V172.682z M92.015,194.161c17.554,2.614,33.12,14.096,40.913,30.024
	c0.016,0.032,0.032,0.066,0.048,0.098c3.588,7.353,5.463,15.584,5.463,23.765v38.916H114.01
	c-13.817-10.275-21.996-26.451-21.996-43.739L92.015,194.161z M424.948,339.329H190.926c-4.449,0-8.057,3.607-8.057,8.057
	s3.607,8.057,8.057,8.057h200.005l-33.696,140.444H154.764l-33.696-140.444h37.631c4.449,0,8.057-3.607,8.057-8.057
	s-3.607-8.057-8.057-8.057H87.052v-36.251h337.895v36.251H424.948z"/>
</svg>